<?xml version="1.0" encoding="UTF-8" standalone="no"?><!DOCTYPE svg PUBLIC "-//W3C//DTD SVG 1.1//EN" "http://www.w3.org/Graphics/SVG/1.1/DTD/svg11.dtd"><svg width="100%" height="100%" viewBox="0 0 240 240" version="1.1" xmlns="http://www.w3.org/2000/svg" xmlns:xlink="http://www.w3.org/1999/xlink" xml:space="preserve" style="fill-rule:evenodd;clip-rule:evenodd;stroke-linecap:round;stroke-linejoin:round;stroke-miterlimit:1.5;"><path d="M120,0l-64.8,12l-31.2,52.8l14.4,69.6l31.2,60l50.4,45.6l0,-240Z" style="fill:none;stroke:#000;stroke-width:1px;"/><path d="M55.2,12l14.4,38.4l0,7.2l-45.6,7.2" style="fill:none;stroke:#000;stroke-width:0.5px;"/><path d="M110.4,48l0,7.2l-40.8,2.4l0,-7.2l40.8,-2.4" style="fill:none;stroke:#000;stroke-width:1px;"/><path d="M110.4,48l9.6,-48l-9.6,48Z" style="fill:none;stroke:#000;stroke-width:0.5px;"/><path d="M86.4,88.8l-24,-9.6l24,-12l21.6,12l-21.6,9.6Z" style="fill:none;stroke:#000;stroke-width:1px;"/><path d="M62.4,79.2l7.2,-21.6" style="fill:none;stroke:#000;stroke-width:0.5px;"/><path d="M24,64.8l38.4,14.4" style="fill:none;stroke:#000;stroke-width:0.5px;"/><path d="M108,79.2l12,-24" style="fill:none;stroke:#000;stroke-width:0.5px;"/><path d="M108,79.2l12,14.4" style="fill:none;stroke:#000;stroke-width:0.5px;"/><path d="M62.4,79.2l-24,55.2" style="fill:none;stroke:#000;stroke-width:0.5px;"/><path d="M38.4,134.4l43.2,-4.8l-19.2,-50.4" style="fill:none;stroke:#000;stroke-width:0.5px;"/><path d="M81.6,129.6l38.4,-36" style="fill:none;stroke:#000;stroke-width:0.5px;"/><path d="M81.6,129.6l-12,64.8" style="fill:none;stroke:#000;stroke-width:0.5px;"/><path d="M81.6,129.6l7.2,45.6" style="fill:none;stroke:#000;stroke-width:0.5px;"/><path d="M88.8,175.2l24,-9.6l7.2,2.4" style="fill:none;stroke:#000;stroke-width:1px;"/><path d="M88.8,175.2l31.2,4.8" style="fill:none;stroke:#000;stroke-width:1px;"/><path d="M88.8,175.2l-19.2,19.2" style="fill:none;stroke:#000;stroke-width:0.5px;"/><path d="M88.8,175.2l31.2,64.8" style="fill:none;stroke:#000;stroke-width:0.5px;"/><path d="M120,93.6l-16.8,50.4l16.8,2.4" style="fill:none;stroke:#000;stroke-width:1px;"/><path d="M81.6,129.6l21.6,14.4l9.6,21.6" style="fill:none;stroke:#000;stroke-width:0.5px;"/><path d="M103.2,144l-14.4,31.2" style="fill:none;stroke:#000;stroke-width:0.5px;"/><path d="M110.4,55.2l9.6,0" style="fill:none;stroke:#000;stroke-width:0.5px;"/><path d="M0,120l240,0" style="fill:none;stroke:#ad2214;stroke-width:0.5px;stroke-linecap:butt;stroke-linejoin:miter;"/><path d="M120,240l0,-240" style="fill:none;stroke:#0081b2;stroke-width:0.5px;stroke-linecap:butt;stroke-linejoin:miter;"/><text x="123.853px" y="116.572px" style="font-family:'Futura-Medium', 'Futura', sans-serif;font-weight:500;font-size:10px;fill:#ad2214;">0</text><text x="123.853px" y="10.066px" style="font-family:'Futura-Medium', 'Futura', sans-serif;font-weight:500;font-size:10px;fill:#0081b2;">0</text><text x="123.853px" y="236.572px" style="font-family:'Futura-Medium', 'Futura', sans-serif;font-weight:500;font-size:10px;fill:#0081b2;">1</text><g transform="matrix(0.24,0,0,0.24,87.8967,111.53)"><text x="510px" y="490px" style="font-family:'Futura-Medium', 'Futura', sans-serif;font-weight:500;font-size:41.667px;fill:#231f20;">(</text><text x="525.259px" y="490px" style="font-family:'Futura-Medium', 'Futura', sans-serif;font-weight:500;font-size:41.667px;fill:#ad2214;">x</text><text x="548.513px" y="490px" style="font-family:'Futura-Medium', 'Futura', sans-serif;font-weight:500;font-size:41.667px;fill:#231f20;">,</text><text x="561.371px" y="490px" style="font-family:'Futura-Medium', 'Futura', sans-serif;font-weight:500;font-size:41.667px;fill:#0081b2;">y</text><text x="584.015px" y="490px" style="font-family:'Futura-Medium', 'Futura', sans-serif;font-weight:500;font-size:41.667px;fill:#231f20;">)</text></g><text x="222.971px" y="116.565px" style="font-family:'Futura-Medium', 'Futura', sans-serif;font-weight:500;font-size:10px;fill:#ad2214;">0.5</text><text x="2.171px" y="116.565px" style="font-family:'Futura-Medium', 'Futura', sans-serif;font-weight:500;font-size:10px;fill:#ad2214;">0.5</text><path d="M120,96l2.4,0" style="fill:none;stroke:#0081b2;stroke-width:1px;stroke-linecap:butt;stroke-linejoin:miter;"/><path d="M120,72l2.4,0" style="fill:none;stroke:#0081b2;stroke-width:1px;stroke-linecap:butt;stroke-linejoin:miter;"/><path d="M120,48l2.4,0" style="fill:none;stroke:#0081b2;stroke-width:1px;stroke-linecap:butt;stroke-linejoin:miter;"/><path d="M120,24l2.4,0" style="fill:none;stroke:#0081b2;stroke-width:1px;stroke-linecap:butt;stroke-linejoin:miter;"/><path d="M120,144l2.4,0" style="fill:none;stroke:#0081b2;stroke-width:1px;stroke-linecap:butt;stroke-linejoin:miter;"/><path d="M120,168l2.4,0" style="fill:none;stroke:#0081b2;stroke-width:1px;stroke-linecap:butt;stroke-linejoin:miter;"/><path d="M120,192l2.4,0" style="fill:none;stroke:#0081b2;stroke-width:1px;stroke-linecap:butt;stroke-linejoin:miter;"/><path d="M120,216l2.4,0" style="fill:none;stroke:#0081b2;stroke-width:1px;stroke-linecap:butt;stroke-linejoin:miter;"/><path d="M24,120l0,-2.4" style="fill:none;stroke:#ad2214;stroke-width:1px;stroke-linecap:butt;stroke-linejoin:miter;"/><path d="M48,120l0,-2.4" style="fill:none;stroke:#ad2214;stroke-width:1px;stroke-linecap:butt;stroke-linejoin:miter;"/><path d="M72,120l0,-2.4" style="fill:none;stroke:#ad2214;stroke-width:1px;stroke-linecap:butt;stroke-linejoin:miter;"/><path d="M96,117.6l0,2.4" style="fill:none;stroke:#ad2214;stroke-width:1px;stroke-linecap:butt;stroke-linejoin:miter;"/><path d="M144,120l0,-2.4" style="fill:none;stroke:#ad2214;stroke-width:1px;stroke-linecap:butt;stroke-linejoin:miter;"/><path d="M168,120l0,-2.4" style="fill:none;stroke:#ad2214;stroke-width:1px;stroke-linecap:butt;stroke-linejoin:miter;"/><path d="M192,117.6l0,2.4" style="fill:none;stroke:#ad2214;stroke-width:1px;stroke-linecap:butt;stroke-linejoin:miter;"/><path d="M216,117.6l0,2.4" style="fill:none;stroke:#ad2214;stroke-width:1px;stroke-linecap:butt;stroke-linejoin:miter;"/><path d="M240,120l0,-2.4" style="fill:none;stroke:#ad2214;stroke-width:1px;stroke-linecap:square;stroke-linejoin:miter;"/><path d="M0,120l0,-2.4" style="fill:none;stroke:#ad2214;stroke-width:1px;stroke-linecap:square;stroke-linejoin:miter;"/><path d="M120,240l2.4,0" style="fill:none;stroke:#0081b2;stroke-width:1px;stroke-linecap:square;stroke-linejoin:miter;"/><path d="M120,0l2.4,0" style="fill:none;stroke:#0081b2;stroke-width:1px;stroke-linecap:square;stroke-linejoin:miter;"/></svg>